<svg id="Capa_1" enable-background="new 0 0 512 512" height="512" viewBox="0 0 512 512" width="512" xmlns="http://www.w3.org/2000/svg"><g><path d="m496.999 175.995h-82.999c-8.284 0-15 6.716-15 15v105h-14.998c-8.284 0-15 6.716-15 15v130.01c0 8.284 6.716 15 15 15h112.997c8.284 0 15-6.716 15-15v-250.01c0-8.284-6.716-15-15-15z" fill="#becefc"/><path d="m127.999 295.995h-14.999v-105c0-8.284-6.716-15-15-15h-83c-8.284 0-15 6.716-15 15v250.01c0 8.284 6.716 15 15 15h112.999c8.284 0 15-6.716 15-15v-130.01c0-8.284-6.716-15-15-15z" fill="#d9e1f8"/><path d="m384 295.995h-15v-105c0-8.284-6.716-15-15-15h-68.001c-8.284 0-15 6.716-15 15v105h-14.999c-8.284 0-15 6.716-15 15v130.01c0 8.284 6.716 15 15 15h128z" fill="#d9e1f8"/><path d="m256 295.995h-15.001v-105c0-8.284-6.716-15-15-15h-67.999c-8.284 0-15 6.716-15 15v105h-15v160.01h128z" fill="#f5f5f5"/><path d="m158 175.995h-60c-8.284 0-15 6.716-15 15v120c0 8.284 6.716 15 15 15h60c8.284 0 15-6.716 15-15v-120c0-8.284-6.716-15-15-15z" fill="#5c7a99"/><path d="m414 175.995h-60c-8.284 0-15 6.716-15 15v120c0 8.284 6.716 15 15 15h60c8.284 0 15-6.716 15-15v-120c0-8.284-6.716-15-15-15z" fill="#335373"/><path d="m285.999 175.995h-60c-8.284 0-15 6.716-15 15v120c0 8.284 6.716 15 15 15h60c8.284 0 15-6.716 15-15v-120c0-8.284-6.716-15-15-15z" fill="#5c7a99"/><path d="m285.999 175.995h-29.999v150h29.999c8.284 0 15-6.716 15-15v-120c0-8.284-6.716-15-15-15z" fill="#335373"/><path d="m497 55.995h-482c-8.284 0-15 6.716-15 15v120h512v-120c0-8.284-6.716-15-15-15z" fill="#95e1ff"/><path d="m497 55.995h-241v135h256v-120c0-8.284-6.716-15-15-15z" fill="#6bb9ff"/><path d="m436.997 138.495h-361.994c-8.284 0-15-6.716-15-15s6.716-15 15-15h361.994c8.284 0 15 6.716 15 15s-6.716 15-15 15z" fill="#6bb9ff"/><path d="m436.997 108.495h-180.997v30h180.997c8.284 0 15-6.716 15-15s-6.716-15-15-15z" fill="#4191ff"/></g></svg>